<svg xmlns="http://www.w3.org/2000/svg" version="1.1" viewBox="96.74725274725274 34.32 443.16483516483515 351" style="max-height: 500px" width="443.16483516483515" height="351">
<path transform="translate(310.94921875,45.328125)" fill="#FCCECE" d="M0 0 C2.51215909 0.82303117 3.53605983 0.39200237 6.05078125 -0.328125 C6.75001709 -0.51181641 7.44925293 -0.69550781 8.16967773 -0.88476562 C8.91290283 -1.08263672 9.65612793 -1.28050781 10.421875 -1.484375 C11.65454102 -1.81115234 11.65454102 -1.81115234 12.91210938 -2.14453125 C14.62590827 -2.59929214 16.33945158 -3.05501732 18.05273438 -3.51171875 C19.28733398 -3.83849609 19.28733398 -3.83849609 20.546875 -4.171875 C21.29122803 -4.36974609 22.03558105 -4.56761719 22.80249023 -4.77148438 C42.06249908 -9.5399522 64.052399 -6.47995509 81.4296875 2.96484375 C83.34724517 4.14739829 85.20388485 5.38245193 87.05078125 6.671875 C88.06140625 7.331875 89.07203125 7.991875 90.11328125 8.671875 C91.08265625 9.331875 92.05203125 9.991875 93.05078125 10.671875 C93.60507812 11.02765625 94.159375 11.3834375 94.73046875 11.75 C99.01914128 14.60911502 102.09816826 17.84695648 105.27734375 21.90234375 C110.07272568 26.68716317 117.99651621 26.88800379 124.39453125 27.99609375 C143.18333602 31.49764373 159.8506391 43.25192311 170.92578125 58.5703125 C173.39483194 62.17403722 175.4507027 65.61256242 177.05078125 69.671875 C177.55158203 70.93064453 177.55158203 70.93064453 178.0625 72.21484375 C179.84881387 76.9230093 181.24084927 81.50028001 182.30078125 86.421875 C183.64080872 91.53570954 185.73970314 93.75752899 189.86328125 96.93359375 C203.07254106 107.4302377 211.74903857 125.18116744 214.05078125 141.671875 C215.76218097 162.03573018 212.2980885 178.49613316 203.05078125 196.671875 C202.39078125 196.671875 201.73078125 196.671875 201.05078125 196.671875 C200.79425781 197.39632812 200.53773438 198.12078125 200.2734375 198.8671875 C196.68234507 207.10490112 189.59303144 213.94623276 182.05078125 218.671875 C181.39078125 218.671875 180.73078125 218.671875 180.05078125 218.671875 C180.05078125 219.331875 180.05078125 219.991875 180.05078125 220.671875 C168.71365141 227.37574744 168.71365141 227.37574744 162.05078125 227.671875 C161.92703125 228.20554687 161.80328125 228.73921875 161.67578125 229.2890625 C159.74786966 236.25364312 156.10979575 241.52693244 151.05078125 246.671875 C150.39078125 246.671875 149.73078125 246.671875 149.05078125 246.671875 C148.71046875 247.5690625 148.71046875 247.5690625 148.36328125 248.484375 C146.65001137 251.3398248 145.08385805 252.33167827 142.05078125 253.671875 C140.37535149 253.38582602 138.70692782 253.05406267 137.05078125 252.671875 C134.78220979 253.51265372 134.78220979 253.51265372 133.05078125 254.671875 C133.71078125 255.661875 134.37078125 256.651875 135.05078125 257.671875 C135.86857966 260.31205135 136.43173015 262.97458091 137.05078125 265.671875 C138.04078125 265.671875 139.03078125 265.671875 140.05078125 265.671875 C140.38078125 266.661875 140.71078125 267.651875 141.05078125 268.671875 C142.37926816 269.67830448 143.71228454 270.67879679 145.05078125 271.671875 C145.05078125 272.331875 145.05078125 272.991875 145.05078125 273.671875 C145.62183594 273.91421875 146.19289063 274.1565625 146.78125 274.40625 C149.47432473 275.90806792 151.23217749 277.69613963 153.36328125 279.921875 C156.17010068 282.81234137 158.98125724 285.51324582 162.11328125 288.046875 C163.08265625 288.913125 164.05203125 289.779375 165.05078125 290.671875 C165.05078125 291.661875 165.05078125 292.651875 165.05078125 293.671875 C166.04078125 294.001875 167.03078125 294.331875 168.05078125 294.671875 C170.59298309 298.16953525 170.3838456 301.84492239 170.42578125 306.046875 C170.45414062 307.33335937 170.4825 308.61984375 170.51171875 309.9453125 C169.97855855 314.25577714 168.7683535 316.32754735 166.05078125 319.671875 C160.1200392 324.15019042 155.35112519 325.49361029 148.05078125 324.671875 C141.32801846 322.6614488 135.76708594 317.71570084 131.05078125 312.671875 C131.05078125 312.011875 131.05078125 311.351875 131.05078125 310.671875 C130.468125 310.40632813 129.88546875 310.14078125 129.28515625 309.8671875 C126.98903897 308.63884504 125.24722107 307.26872561 123.30078125 305.546875 C122.38039063 304.73863281 122.38039063 304.73863281 121.44140625 303.9140625 C120.9825 303.50414062 120.52359375 303.09421875 120.05078125 302.671875 C120.73140625 303.6825 121.41203125 304.693125 122.11328125 305.734375 C123.73233905 308.60820259 124.0518491 309.73167463 124.11328125 313.171875 C122.60042352 318.15540634 120.58366975 321.96204251 116.1875 324.9296875 C108.92028099 328.73968581 101.74472094 329.92657632 93.625 330.42578125 C91.06528611 330.51459537 91.06528611 330.51459537 89.05078125 331.671875 C85.99150395 332.09260076 83.10575013 332.14309204 80.05078125 331.671875 C76.37622021 328.87601334 74.25696266 325.68311392 72.05078125 321.671875 C70.61177425 319.1066886 69.35795136 316.97303526 67.25390625 314.91015625 C64.6513219 312.2660413 62.45871974 309.38331929 60.23828125 306.421875 C54.10033238 298.36173752 47.84762235 291.1859025 40.05078125 284.671875 C38.87515625 283.5890625 38.87515625 283.5890625 37.67578125 282.484375 C32.52000741 278.92443592 26.48810886 277.10821244 20.55078125 275.234375 C12.30838076 272.50605428 5.14830895 268.22665306 -2.07421875 263.484375 C-2.75049316 263.04407959 -3.42676758 262.60378418 -4.12353516 262.15014648 C-5.77046472 261.04590206 -7.36546856 259.86496681 -8.94921875 258.671875 C-8.94921875 258.011875 -8.94921875 257.351875 -8.94921875 256.671875 C-12.4948153 255.49000948 -15.62138806 255.62132599 -19.30078125 255.71484375 C-20.80857974 255.73729018 -22.31639333 255.75873898 -23.82421875 255.77929688 C-26.17588523 255.81586006 -28.52675196 255.85815261 -30.87792969 255.91870117 C-49.07134348 256.36438921 -68.71157816 253.24709427 -83.94921875 242.671875 C-85.02171875 242.115 -86.09421875 241.558125 -87.19921875 240.984375 C-91.61231128 238.5976031 -94.82001386 234.93303146 -98.2265625 231.3046875 C-100.94865588 229.25574159 -100.94865588 229.25574159 -104.5 230.39453125 C-105.18715088 230.61399414 -105.87430176 230.83345703 -106.58227539 231.05957031 C-111.35098138 232.29318709 -116.30315384 231.99910444 -121.19921875 231.984375 C-122.25496094 232.00048828 -123.31070313 232.01660156 -124.3984375 232.03320312 C-143.79494546 232.04507369 -164.00124056 224.20819411 -177.94921875 210.671875 C-178.62431071 209.3427877 -179.29311742 208.01043888 -179.94921875 206.671875 C-180.93921875 206.341875 -181.92921875 206.011875 -182.94921875 205.671875 C-184.43740137 203.36262611 -185.69868762 201.10999107 -186.94921875 198.671875 C-187.41585937 197.78886719 -187.8825 196.90585938 -188.36328125 195.99609375 C-191.60560108 189.7192951 -194.34135485 183.37797842 -196.79296875 176.75390625 C-197.8114421 174.03912424 -198.92458992 171.39506899 -200.07421875 168.734375 C-208.02278162 148.63678922 -206.32939521 127.25849941 -198.19921875 107.546875 C-197.46496167 105.91470113 -196.7216306 104.28634239 -195.94921875 102.671875 C-195.28921875 102.671875 -194.62921875 102.671875 -193.94921875 102.671875 C-193.68238281 101.93582031 -193.41554688 101.19976562 -193.140625 100.44140625 C-187.82230166 88.07848412 -175.14658236 79.27785102 -163.94921875 72.671875 C-162.64863117 72.21939371 -161.33740801 71.79445433 -160.01171875 71.421875 C-155.57620467 68.88729552 -154.80962101 65.38678775 -153.1875 60.6796875 C-151.85493886 57.44286708 -150.22075509 55.31622074 -147.94921875 52.671875 C-147.44261719 51.96546875 -146.93601563 51.2590625 -146.4140625 50.53125 C-140.44008808 42.28074825 -133.09832701 36.12314327 -123.94921875 31.671875 C-123.45421875 31.15625 -122.95921875 30.640625 -122.44921875 30.109375 C-120.24380747 27.99585586 -117.85947715 27.55044357 -114.94921875 26.671875 C-113.21671875 25.8984375 -113.21671875 25.8984375 -111.44921875 25.109375 C-106.42804488 23.13607321 -101.26226927 23.26148502 -95.92578125 23.17578125 C-94.94351563 23.00949219 -93.96125 22.84320313 -92.94921875 22.671875 C-91.66495084 20.84828079 -91.66495084 20.84828079 -90.94921875 18.671875 C-89.36328125 17.109375 -89.36328125 17.109375 -87.57421875 15.671875 C-85.58252139 14.04007367 -83.77830111 12.48993041 -82.01171875 10.609375 C-61.78387609 -8.3925378 -24.20358298 -11.53745925 0 0 Z"/>
<path transform="translate(310.94921875,45.328125)" fill="#C67077" d="M0 0 C2.51215909 0.82303117 3.53605983 0.39200237 6.05078125 -0.328125 C6.75001709 -0.51181641 7.44925293 -0.69550781 8.16967773 -0.88476562 C8.91290283 -1.08263672 9.65612793 -1.28050781 10.421875 -1.484375 C11.65454102 -1.81115234 11.65454102 -1.81115234 12.91210938 -2.14453125 C14.62590827 -2.59929214 16.33945158 -3.05501732 18.05273438 -3.51171875 C19.28733398 -3.83849609 19.28733398 -3.83849609 20.546875 -4.171875 C21.29122803 -4.36974609 22.03558105 -4.56761719 22.80249023 -4.77148438 C42.06249908 -9.5399522 64.052399 -6.47995509 81.4296875 2.96484375 C83.34724517 4.14739829 85.20388485 5.38245193 87.05078125 6.671875 C88.06140625 7.331875 89.07203125 7.991875 90.11328125 8.671875 C91.08265625 9.331875 92.05203125 9.991875 93.05078125 10.671875 C93.60507812 11.02765625 94.159375 11.3834375 94.73046875 11.75 C99.01914128 14.60911502 102.09816826 17.84695648 105.27734375 21.90234375 C110.07272568 26.68716317 117.99651621 26.88800379 124.39453125 27.99609375 C143.18333602 31.49764373 159.8506391 43.25192311 170.92578125 58.5703125 C173.39483194 62.17403722 175.4507027 65.61256242 177.05078125 69.671875 C177.55158203 70.93064453 177.55158203 70.93064453 178.0625 72.21484375 C179.84881387 76.9230093 181.24084927 81.50028001 182.30078125 86.421875 C183.64080872 91.53570954 185.73970314 93.75752899 189.86328125 96.93359375 C203.07254106 107.4302377 211.74903857 125.18116744 214.05078125 141.671875 C215.76218097 162.03573018 212.2980885 178.49613316 203.05078125 196.671875 C202.39078125 196.671875 201.73078125 196.671875 201.05078125 196.671875 C200.79425781 197.39632812 200.53773438 198.12078125 200.2734375 198.8671875 C196.68234507 207.10490112 189.59303144 213.94623276 182.05078125 218.671875 C181.39078125 218.671875 180.73078125 218.671875 180.05078125 218.671875 C180.05078125 219.331875 180.05078125 219.991875 180.05078125 220.671875 C168.71365141 227.37574744 168.71365141 227.37574744 162.05078125 227.671875 C161.92703125 228.20554687 161.80328125 228.73921875 161.67578125 229.2890625 C159.74786966 236.25364312 156.10979575 241.52693244 151.05078125 246.671875 C150.39078125 246.671875 149.73078125 246.671875 149.05078125 246.671875 C148.71046875 247.5690625 148.71046875 247.5690625 148.36328125 248.484375 C146.66451273 251.31565587 145.0411257 252.31910013 142.05078125 253.671875 C138.87513804 253.671875 138.03691262 252.6583812 135.73828125 250.421875 C134.05078125 247.671875 134.05078125 247.671875 134.20703125 245.30859375 C135.22497494 242.12751972 136.70207779 240.27248593 138.86328125 237.734375 C142.882391 232.88421938 146.35372773 228.22207851 148.98828125 222.484375 C151.17883845 218.04428406 153.60836228 216.71139795 158.125 214.7890625 C162.65322214 212.83631475 166.57084772 210.80228325 170.50390625 207.81640625 C172.05078125 206.671875 172.05078125 206.671875 174.55078125 205.296875 C186.31644337 197.64919462 194.44576224 183.53607506 197.38916016 170.0534668 C200.82211918 152.79704465 199.46834844 135.93852951 190.05078125 120.671875 C188.48767541 118.4805706 186.88602576 116.35348539 185.1875 114.265625 C184.05078125 112.671875 184.05078125 112.671875 184.05078125 110.671875 C182.73078125 110.011875 181.41078125 109.351875 180.05078125 108.671875 C180.05078125 108.011875 180.05078125 107.351875 180.05078125 106.671875 C179.47714844 106.40117187 178.90351563 106.13046875 178.3125 105.8515625 C174.23270841 103.7235883 170.84263504 101.37495885 168.05078125 97.671875 C167.43028022 94.68571379 167.36145744 91.89833417 167.296875 88.8515625 C166.53656711 79.02790177 160.05362784 67.53819166 153.046875 60.72265625 C151.40064344 59.34913376 149.7282817 58.00702842 148.05078125 56.671875 C148.05078125 56.011875 148.05078125 55.351875 148.05078125 54.671875 C147.3134375 54.39988281 146.57609375 54.12789062 145.81640625 53.84765625 C143.19822169 52.73455801 141.1429741 51.45594171 138.80078125 49.859375 C129.22410887 44.0622202 118.66032526 41.48173803 107.55078125 41.484375 C102.9757419 41.35729057 100.76611127 41.19719548 97.05078125 38.46875 C91.05078125 31.90625 91.05078125 31.90625 91.05078125 28.671875 C89.73078125 28.011875 88.41078125 27.351875 87.05078125 26.671875 C87.05078125 26.011875 87.05078125 25.351875 87.05078125 24.671875 C86.47714844 24.40117188 85.90351563 24.13046875 85.3125 23.8515625 C83.0138802 22.65262782 80.98287921 21.28715699 78.86328125 19.796875 C67.25780781 12.01571744 55.18336104 9.1500478 41.30078125 9.359375 C40.21667969 9.35615234 39.13257813 9.35292969 38.015625 9.34960938 C32.33186974 9.38777867 27.46092764 9.75323913 22.05078125 11.671875 C21.01695312 12.001875 19.983125 12.331875 18.91796875 12.671875 C17.93054688 13.001875 16.943125 13.331875 15.92578125 13.671875 C14.43691406 14.166875 14.43691406 14.166875 12.91796875 14.671875 C11.05627177 15.32118621 9.21418838 16.03094362 7.40234375 16.80859375 C3.98393265 18.0635254 1.55783593 17.48601269 -1.94921875 16.671875 C-2.69945312 16.20523438 -3.4496875 15.73859375 -4.22265625 15.2578125 C-16.94285267 7.85895899 -35.00463003 7.60517604 -48.92553711 11.21435547 C-55.53112889 13.14125991 -61.45649039 15.47825666 -66.94921875 19.671875 C-67.81804687 20.27 -68.686875 20.868125 -69.58203125 21.484375 C-74.13595818 24.66095618 -77.9374706 27.56364852 -81.38671875 31.921875 C-85.99721199 36.83973445 -92.05748686 37.34918424 -98.45288086 38.30566406 C-108.04701598 39.75726775 -115.53612911 43.46169417 -123.19921875 49.421875 C-124.94921875 50.671875 -124.94921875 50.671875 -126.94921875 50.671875 C-127.27921875 51.661875 -127.60921875 52.651875 -127.94921875 53.671875 C-129.61588542 55.33854167 -131.28255208 57.00520833 -132.94921875 58.671875 C-136.2056682 62.89377821 -138.63762567 66.90396296 -140.7746582 71.77392578 C-145.43455255 82.28483614 -145.43455255 82.28483614 -150.26171875 84.296875 C-151.82108577 84.76575684 -153.38382249 85.22353335 -154.94921875 85.671875 C-169.86038883 92.51527124 -179.96554926 103.27808054 -186.171875 118.4609375 C-192.94083794 137.71336475 -188.47787814 157.59567489 -180.3203125 175.55859375 C-179.16881769 178.17324151 -178.25799196 180.68927438 -177.44921875 183.421875 C-176.07330171 187.82975293 -173.81176347 191.52266311 -171.3515625 195.41015625 C-169.94921875 197.671875 -169.94921875 197.671875 -169.015625 199.83984375 C-167.65237149 202.18184336 -166.40868754 202.60312402 -163.94921875 203.671875 C-161.72650307 205.12270214 -159.54708658 206.62811825 -157.36328125 208.13671875 C-146.44753686 215.07828436 -135.46456266 217.04381572 -122.76171875 217.109375 C-121.76479004 217.11928467 -120.76786133 217.12919434 -119.74072266 217.1394043 C-113.57222837 217.06867169 -108.2845613 216.17152703 -102.4284668 214.21508789 C-99.54282581 213.58283273 -97.75176412 213.76946072 -94.94921875 214.671875 C-93.83086382 216.02745673 -92.72037078 217.39050376 -91.65625 218.7890625 C-84.10174739 227.12148871 -73.72586799 233.15598651 -63.01171875 236.296875 C-62.34720703 236.50054687 -61.68269531 236.70421875 -60.99804688 236.9140625 C-59.64858404 237.32243535 -58.29541504 237.71874425 -56.93896484 238.10327148 C-55.07142109 238.63695362 -53.21850717 239.22109754 -51.3671875 239.80859375 C-45.11058763 241.338886 -38.59420764 240.91970508 -32.19921875 240.859375 C-30.88566406 240.85873047 -29.57210937 240.85808594 -28.21875 240.85742188 C-21.00017937 240.94723623 -21.00017937 240.94723623 -13.94921875 239.671875 C-10.76171875 239.046875 -10.76171875 239.046875 -6.94921875 239.671875 C-4.64325876 241.66088033 -2.65664512 243.85741703 -0.5859375 246.08984375 C8.31032158 254.80158783 20.07581376 260.37240621 32.0390625 263.4375 C41.74078462 266.05889247 47.92924533 271.89816613 55.05078125 278.671875 C55.92992187 279.49429687 56.8090625 280.31671875 57.71484375 281.1640625 C61.5887086 284.90104167 61.5887086 284.90104167 63.05078125 286.671875 C63.05078125 287.331875 63.05078125 287.991875 63.05078125 288.671875 C63.64624756 288.92332275 64.24171387 289.17477051 64.85522461 289.43383789 C67.34237464 290.83629956 68.48943989 292.19379016 70.1796875 294.48046875 C70.73978516 295.22748047 71.29988281 295.97449219 71.87695312 296.74414062 C72.73643555 297.91493164 72.73643555 297.91493164 73.61328125 299.109375 C74.75845376 300.65119945 75.90552068 302.19161907 77.0546875 303.73046875 C77.55814697 304.41423584 78.06160645 305.09800293 78.58032227 305.80249023 C80.00158765 307.68635683 80.00158765 307.68635683 81.64208984 309.25830078 C83.65705734 311.28025257 84.77936093 313.59505459 86.11328125 316.109375 C86.61988281 317.05683594 87.12648438 318.00429688 87.6484375 318.98046875 C88.11121094 319.86863281 88.57398438 320.75679688 89.05078125 321.671875 C89.43878906 322.38988281 89.82679688 323.10789062 90.2265625 323.84765625 C91.28796049 326.19681673 91.19224881 328.12545896 91.05078125 330.671875 C87.57112671 332.41170227 83.84721896 332.25746071 80.05078125 331.671875 C76.37622021 328.87601334 74.25696266 325.68311392 72.05078125 321.671875 C70.61177425 319.1066886 69.35795136 316.97303526 67.25390625 314.91015625 C64.6513219 312.2660413 62.45871974 309.38331929 60.23828125 306.421875 C54.10033238 298.36173752 47.84762235 291.1859025 40.05078125 284.671875 C38.87515625 283.5890625 38.87515625 283.5890625 37.67578125 282.484375 C32.52000741 278.92443592 26.48810886 277.10821244 20.55078125 275.234375 C12.30838076 272.50605428 5.14830895 268.22665306 -2.07421875 263.484375 C-2.75049316 263.04407959 -3.42676758 262.60378418 -4.12353516 262.15014648 C-5.77046472 261.04590206 -7.36546856 259.86496681 -8.94921875 258.671875 C-8.94921875 258.011875 -8.94921875 257.351875 -8.94921875 256.671875 C-12.4948153 255.49000948 -15.62138806 255.62132599 -19.30078125 255.71484375 C-20.80857974 255.73729018 -22.31639333 255.75873898 -23.82421875 255.77929688 C-26.17588523 255.81586006 -28.52675196 255.85815261 -30.87792969 255.91870117 C-49.07134348 256.36438921 -68.71157816 253.24709427 -83.94921875 242.671875 C-85.02171875 242.115 -86.09421875 241.558125 -87.19921875 240.984375 C-91.61231128 238.5976031 -94.82001386 234.93303146 -98.2265625 231.3046875 C-100.94865588 229.25574159 -100.94865588 229.25574159 -104.5 230.39453125 C-105.18715088 230.61399414 -105.87430176 230.83345703 -106.58227539 231.05957031 C-111.35098138 232.29318709 -116.30315384 231.99910444 -121.19921875 231.984375 C-122.25496094 232.00048828 -123.31070313 232.01660156 -124.3984375 232.03320312 C-143.79494546 232.04507369 -164.00124056 224.20819411 -177.94921875 210.671875 C-178.62431071 209.3427877 -179.29311742 208.01043888 -179.94921875 206.671875 C-180.93921875 206.341875 -181.92921875 206.011875 -182.94921875 205.671875 C-184.43740137 203.36262611 -185.69868762 201.10999107 -186.94921875 198.671875 C-187.41585937 197.78886719 -187.8825 196.90585938 -188.36328125 195.99609375 C-191.60560108 189.7192951 -194.34135485 183.37797842 -196.79296875 176.75390625 C-197.8114421 174.03912424 -198.92458992 171.39506899 -200.07421875 168.734375 C-208.02278162 148.63678922 -206.32939521 127.25849941 -198.19921875 107.546875 C-197.46496167 105.91470113 -196.7216306 104.28634239 -195.94921875 102.671875 C-195.28921875 102.671875 -194.62921875 102.671875 -193.94921875 102.671875 C-193.68238281 101.93582031 -193.41554688 101.19976562 -193.140625 100.44140625 C-187.82230166 88.07848412 -175.14658236 79.27785102 -163.94921875 72.671875 C-162.64863117 72.21939371 -161.33740801 71.79445433 -160.01171875 71.421875 C-155.57620467 68.88729552 -154.80962101 65.38678775 -153.1875 60.6796875 C-151.85493886 57.44286708 -150.22075509 55.31622074 -147.94921875 52.671875 C-147.44261719 51.96546875 -146.93601563 51.2590625 -146.4140625 50.53125 C-140.44008808 42.28074825 -133.09832701 36.12314327 -123.94921875 31.671875 C-123.45421875 31.15625 -122.95921875 30.640625 -122.44921875 30.109375 C-120.24380747 27.99585586 -117.85947715 27.55044357 -114.94921875 26.671875 C-113.21671875 25.8984375 -113.21671875 25.8984375 -111.44921875 25.109375 C-106.42804488 23.13607321 -101.26226927 23.26148502 -95.92578125 23.17578125 C-94.94351563 23.00949219 -93.96125 22.84320313 -92.94921875 22.671875 C-91.66495084 20.84828079 -91.66495084 20.84828079 -90.94921875 18.671875 C-89.36328125 17.109375 -89.36328125 17.109375 -87.57421875 15.671875 C-85.58252139 14.04007367 -83.77830111 12.48993041 -82.01171875 10.609375 C-61.78387609 -8.3925378 -24.20358298 -11.53745925 0 0 Z"/>
<path transform="translate(339.5625,81.75)" fill="#C6923B" d="M0 0 C1.73443359 -0.03867188 1.73443359 -0.03867188 3.50390625 -0.078125 C4.47199219 0.03015625 5.44007813 0.1384375 6.4375 0.25 C9.11677341 4.26891012 8.59351248 6.49161923 8.4375 11.25 C9.14777344 11.31058594 9.85804688 11.37117188 10.58984375 11.43359375 C11.50894531 11.51738281 12.42804688 11.60117188 13.375 11.6875 C14.74978516 11.80931641 14.74978516 11.80931641 16.15234375 11.93359375 C18.4375 12.25 18.4375 12.25 19.4375 13.25 C24.80286347 12.94630018 26.78614348 12.02306841 30.4375 8.25 C33.49764078 7.83317019 34.99046792 7.97496431 37.640625 9.60546875 C38.31609375 10.21003906 38.9915625 10.81460938 39.6875 11.4375 C40.37328125 12.02917969 41.0590625 12.62085937 41.765625 13.23046875 C43.75259515 15.63061728 44.2645122 17.1510472 44.4375 20.25 C43.756875 21.24 43.07625 22.23 42.375 23.25 C40.10842475 26.01087122 40.10842475 26.01087122 40.875 28.6875 C41.390625 29.533125 41.90625 30.37875 42.4375 31.25 C42.72625 31.85457031 43.015 32.45914063 43.3125 33.08203125 C44.51474189 35.25225466 45.51010842 36.67226795 47.4375 38.25 C50.35057249 38.93196206 53.02347875 39.12307673 56.01171875 39.1796875 C58.4375 39.25 58.4375 39.25 60.4375 40.25 C62.55161293 45.06547945 63.03002935 49.08652993 62.4375 54.25 C59.78752672 56.51027133 57.54373048 57.22139949 54.1875 58.125 C50.66430316 60.84747028 50.70625747 62.28754927 50.125 66.625 C49.8236397 71.20447137 49.8236397 71.20447137 51.91796875 75.0390625 C53.77182681 76.29003772 53.77182681 76.29003772 55.7734375 77.125 C57.4375 78.25 57.4375 78.25 58.33203125 80.5390625 C58.50845827 85.0738903 56.41056344 87.71988189 53.80859375 91.28515625 C51.4375 93.25 51.4375 93.25 48.47265625 93.49609375 C46.37587064 93.20840129 44.28294641 92.89090773 42.1953125 92.54296875 C39.24871046 91.97931368 39.24871046 91.97931368 36.1875 93.875 C33.44869694 99.15697733 34.05326602 104.41818205 34.4375 110.25 C33.02998779 111.11916887 31.6110479 111.96985149 30.1875 112.8125 C29.39859375 113.28816406 28.6096875 113.76382813 27.796875 114.25390625 C25.4375 115.25 25.4375 115.25 23.328125 115.02734375 C21.4375 114.25 21.4375 114.25 18.4375 112.25 C18.4375 111.26 18.4375 110.27 18.4375 109.25 C13.06665894 108.56798844 7.85249441 108.13478735 2.4375 108.25 C2.334375 108.971875 2.23125 109.69375 2.125 110.4375 C1.32229885 113.72127745 0.69518011 115.70100633 -1.5625 118.25 C-7.31355768 118.90995744 -9.82941044 118.16102985 -15.5625 116.25 C-15.5625 111.96 -15.5625 107.67 -15.5625 103.25 C-18.5325 102.26 -18.5325 102.26 -21.5625 101.25 C-22.5525 100.59 -23.5425 99.93 -24.5625 99.25 C-27.32402791 99.5356753 -29.09826085 100.54020379 -31.5625 101.875 C-34.5625 103.25 -34.5625 103.25 -36.48046875 103.10546875 C-39.3319479 101.93384786 -40.82638162 100.22581048 -42.875 97.9375 C-43.59300781 97.15761719 -44.31101562 96.37773437 -45.05078125 95.57421875 C-46.5625 93.25 -46.5625 93.25 -46.4609375 91.15625 C-45.49689966 89.1108132 -44.38497019 87.73794638 -42.875 86.0625 C-41.17019359 83.80241378 -40.53476788 82.79724712 -40.6796875 79.9375 C-41.21646097 77.57646492 -41.21646097 77.57646492 -41.94921875 75.36328125 C-42.5625 73.25 -42.5625 73.25 -42.5625 69.25 C-43.75875 69.146875 -44.955 69.04375 -46.1875 68.9375 C-50.1439874 68.5964235 -53.07794167 67.11209206 -56.5625 65.25 C-56.58942484 62.95839681 -56.60886124 60.66670454 -56.625 58.375 C-56.63660156 57.09882813 -56.64820313 55.82265625 -56.66015625 54.5078125 C-56.5625 51.25 -56.5625 51.25 -55.5625 49.25 C-53.65208396 48.90131977 -51.73367172 48.59598997 -49.8125 48.3125 C-45.91113509 47.41969659 -44.10212505 46.94488941 -41.62109375 43.75 C-39.14979928 38.63349406 -39.14979928 38.63349406 -38.82421875 33.0859375 C-39.59463894 30.95658884 -39.59463894 30.95658884 -41.6875 28.3125 C-43.5625 25.25 -43.5625 25.25 -43.3828125 22.828125 C-42.45784902 19.92109692 -41.30439333 18.23683774 -39.3125 15.9375 C-38.72984375 15.24011719 -38.1471875 14.54273437 -37.546875 13.82421875 C-35.5625 12.25 -35.5625 12.25 -33.03515625 11.83203125 C-30.10876416 12.32669784 -29.20632083 13.0662 -27.25 15.25 C-26.73824219 15.806875 -26.22648437 16.36375 -25.69921875 16.9375 C-25.32410156 17.370625 -24.94898438 17.80375 -24.5625 18.25 C-19.86125654 17.0276767 -15.90729654 15.47291916 -11.5625 13.25 C-10.9025 13.25 -10.2425 13.25 -9.5625 13.25 C-9.5625 9.29 -9.5625 5.33 -9.5625 1.25 C-6.20911312 0.13220437 -3.52998767 0.04732944 0 0 Z"/>
<path transform="translate(383.75,217.5625)" fill="#426979" d="M0 0 C9.72736014 7.27737205 17.24428524 16.17974114 19.25 28.4375 C19.62267709 33.03327436 19.77645687 37.63137934 19.71118164 42.24169922 C19.70258939 47.67082786 19.70258939 47.67082786 22.46875 52.24609375 C23.3865625 52.96925781 24.304375 53.69242187 25.25 54.4375 C28.31848855 57.50067975 31.37702927 60.57340435 34.4296875 63.65234375 C35.99473019 65.22662362 37.55983597 66.80084077 39.125 68.375 C39.90230469 69.16068359 40.67960937 69.94636719 41.48046875 70.75585938 C45.45823132 74.75033524 49.46876094 78.6150844 53.80151367 82.22387695 C55.74887332 83.85548403 57.55765962 85.54207878 59.25 87.4375 C59.25 88.0975 59.25 88.7575 59.25 89.4375 C60.9 90.0975 62.55 90.7575 64.25 91.4375 C64.25 92.0975 64.25 92.7575 64.25 93.4375 C65.24 93.4375 66.23 93.4375 67.25 93.4375 C67.58 94.4275 67.91 95.4175 68.25 96.4375 C69.57848691 97.44392948 70.91150329 98.44442179 72.25 99.4375 C72.25 100.0975 72.25 100.7575 72.25 101.4375 C72.82105469 101.67984375 73.39210938 101.9221875 73.98046875 102.171875 C76.67354348 103.67369292 78.43139624 105.46176463 80.5625 107.6875 C83.36931943 110.57796637 86.18047599 113.27887082 89.3125 115.8125 C90.281875 116.67875 91.25125 117.545 92.25 118.4375 C92.25 119.4275 92.25 120.4175 92.25 121.4375 C93.24 121.7675 94.23 122.0975 95.25 122.4375 C97.79220184 125.93516025 97.58306435 129.61054739 97.625 133.8125 C97.65335938 135.09898437 97.68171875 136.38546875 97.7109375 137.7109375 C97.1777773 142.02140214 95.96757225 144.09317235 93.25 147.4375 C87.31925795 151.91581542 82.55034394 153.25923529 75.25 152.4375 C68.52723721 150.4270738 62.96630469 145.48132584 58.25 140.4375 C58.25 139.7775 58.25 139.1175 58.25 138.4375 C57.39148438 138.06625 57.39148438 138.06625 56.515625 137.6875 C53.89989389 136.24433801 52.10226544 134.55533778 50 132.4375 C49.29359375 131.73625 48.5871875 131.035 47.859375 130.3125 C46.25 128.4375 46.25 128.4375 46.25 126.4375 C45.26 126.1075 44.27 125.7775 43.25 125.4375 C40.5625 123 40.5625 123 38.25 120.4375 C38.25 119.7775 38.25 119.1175 38.25 118.4375 C36.765 117.9425 36.765 117.9425 35.25 117.4375 C35.25 116.7775 35.25 116.1175 35.25 115.4375 C34.693125 115.210625 34.13625 114.98375 33.5625 114.75 C31.241656 113.43276422 29.65822942 111.93224876 27.82421875 110.015625 C25.93793719 108.12466284 23.94496904 106.38699962 21.9375 104.625 C18.60590185 101.66801933 15.43047493 98.63105668 12.32421875 95.4375 C11.63175049 94.72827393 10.93928223 94.01904785 10.22583008 93.28833008 C8.85334649 91.87501491 7.48946647 90.45327951 6.13549805 89.0222168 C2.04126495 84.81350259 -1.97181336 81.04016238 -7.75 79.4375 C-11.38411607 79.5677385 -11.38411607 79.5677385 -13.69189453 80.05664062 C-26.08896973 82.3507613 -37.93637992 80.9089745 -48.3125 73.8125 C-57.98550958 66.41549267 -65.08009387 57.99880293 -67.4375 45.875 C-68.20979416 39.85110553 -68.91378677 33.82347034 -65.75 28.4375 C-61.58763856 28.98913826 -58.85233896 31.45348072 -55.6875 34 C-54.53486867 34.9088402 -53.38120417 35.81637147 -52.2265625 36.72265625 C-51.6480957 37.17785645 -51.06962891 37.63305664 -50.47363281 38.10205078 C-47.01791033 40.77950148 -43.45113938 43.30257172 -39.89453125 45.84375 C-37.75 47.4375 -37.75 47.4375 -35.75 49.4375 C-33.30987051 49.68037489 -33.30987051 49.68037489 -30.625 49.5625 C-29.71492188 49.54445313 -28.80484375 49.52640625 -27.8671875 49.5078125 C-27.16851562 49.48460937 -26.46984375 49.46140625 -25.75 49.4375 C-25.51410156 48.89222656 -25.27820313 48.34695313 -25.03515625 47.78515625 C-23.41776011 44.83058153 -21.33746609 42.46669267 -19.1875 39.875 C-14.75487964 34.29839355 -13.40053831 29.53856153 -13.75 22.4375 C-14.33628174 22.16510498 -14.92256348 21.89270996 -15.52661133 21.61206055 C-17.70643194 20.46051591 -19.42816489 19.21240706 -21.32421875 17.64453125 C-21.98808594 17.09949951 -22.65195312 16.55446777 -23.3359375 15.99291992 C-24.02945313 15.41775635 -24.72296875 14.84259277 -25.4375 14.25 C-26.86790839 13.07481307 -28.29889467 11.90032916 -29.73046875 10.7265625 C-30.41931152 10.16098633 -31.1081543 9.59541016 -31.81787109 9.01269531 C-35.40838798 6.08547583 -39.06888025 3.24946647 -42.75 0.4375 C-42.42 -0.5525 -42.09 -1.5425 -41.75 -2.5625 C-28.32645309 -9.27427346 -12.72613178 -7.75709446 0 0 Z"/>
<path transform="translate(263.22265625,115.5625)" fill="#C56D74" d="M0 0 C1.77734375 1.4375 1.77734375 1.4375 3.77734375 3.4375 C3.31580529 9.89903846 3.31580529 9.89903846 0.77734375 12.4375 C-3.84150408 12.23668053 -7.64127855 10.9556716 -11.97265625 9.375 C-19.68278052 6.71800229 -27.63808632 5.90979305 -35.22265625 9.4375 C-42.27294176 13.46623458 -46.68748393 18.69855292 -49.22265625 26.4375 C-49.91948976 32.70900157 -49.04429288 37.32143806 -45.22265625 42.4375 C-39.44811269 48.00415999 -32.26168825 52.48638681 -24.78125 55.3828125 C-12.00962151 60.64745325 -1.46811794 70.22087055 4.77734375 82.4375 C5.15246094 83.01371094 5.52757812 83.58992188 5.9140625 84.18359375 C7.29371926 87.78568404 7.10545803 91.36512395 7.08984375 95.1875 C7.10595703 95.9609375 7.12207031 96.734375 7.13867188 97.53125 C7.14550978 105.68203367 4.62488595 111.82721518 -0.22265625 118.4375 C-0.82078125 119.283125 -1.41890625 120.12875 -2.03515625 121 C-8.53903172 128.24717553 -16.94730658 131.77847845 -26.5703125 132.7890625 C-33.35445642 132.96362527 -39.01881017 132.1709954 -45.22265625 129.4375 C-45.87492187 129.18226563 -46.5271875 128.92703125 -47.19921875 128.6640625 C-54.89605246 125.3216128 -62.52500981 119.03889122 -66.22265625 111.4375 C-65.79408482 105.00892857 -65.79408482 105.00892857 -64.22265625 103.4375 C-61.14724557 102.93552181 -58.28985326 102.86988629 -55.22265625 103.4375 C-52.81725758 105.22641206 -51.84256332 106.82474667 -50.22265625 109.4375 C-50.22265625 110.0975 -50.22265625 110.7575 -50.22265625 111.4375 C-49.64128906 111.71335937 -49.05992187 111.98921875 -48.4609375 112.2734375 C-46.22265625 113.4375 -46.22265625 113.4375 -44.390625 114.7265625 C-37.47231642 119.39335053 -30.34717029 119.68742524 -22.22265625 118.4375 C-16.79987355 116.17238191 -12.29456031 112.47542266 -9.22265625 107.4375 C-6.78853569 101.35219859 -5.56232853 93.48725586 -8.12109375 87.24609375 C-9.08876439 85.60242625 -10.1492102 84.01412389 -11.22265625 82.4375 C-11.22265625 81.7775 -11.22265625 81.1175 -11.22265625 80.4375 C-11.88265625 80.4375 -12.54265625 80.4375 -13.22265625 80.4375 C-14.91139504 78.79320171 -16.5757114 77.12365782 -18.22265625 75.4375 C-21.05565548 73.03474079 -23.31582257 71.92803556 -26.93359375 71.12109375 C-27.84181885 70.91508545 -28.75004395 70.70907715 -29.68579102 70.49682617 C-30.64670654 70.29162354 -31.60762207 70.0864209 -32.59765625 69.875 C-34.08060181 69.5507605 -34.08060181 69.5507605 -35.59350586 69.2199707 C-53.01187013 65.48391134 -68.00747874 63.66398882 -85.22265625 69.4375 C-86.34800781 69.81132812 -87.47335938 70.18515625 -88.6328125 70.5703125 C-89.48746094 70.85648437 -90.34210938 71.14265625 -91.22265625 71.4375 C-91.22265625 72.0975 -91.22265625 72.7575 -91.22265625 73.4375 C-92.578125 74.62890625 -92.578125 74.62890625 -94.41015625 76 C-101.53224271 82.05521521 -103.50341525 88.31232743 -104.41015625 97.375 C-104.49970581 98.51255737 -104.49970581 98.51255737 -104.59106445 99.6730957 C-105.04081457 105.25565832 -105.04081457 105.25565832 -107.22265625 107.4375 C-110.09765625 107.9375 -110.09765625 107.9375 -113.22265625 107.4375 C-116.3187124 104.25996869 -117.48229652 101.54119679 -117.66015625 97.1875 C-117.40669276 91.9871283 -116.03406192 87.29428203 -114.22265625 82.4375 C-113.97902344 81.76976562 -113.73539063 81.10203125 -113.484375 80.4140625 C-108.60722409 69.08797744 -98.16543708 60.32305835 -87.0859375 55.5390625 C-76.92541676 51.63010363 -65.97292872 51.85691515 -55.22265625 51.4375 C-56.15851563 50.30248047 -56.15851563 50.30248047 -57.11328125 49.14453125 C-63.31072319 41.19114743 -63.0945075 32.05660605 -62.22265625 22.4375 C-61.3153457 18.80825782 -60.02878345 15.70483428 -58.22265625 12.4375 C-57.64515625 11.385625 -57.06765625 10.33375 -56.47265625 9.25 C-43.10888276 -7.45471686 -17.98415142 -13.00842779 0 0 Z"/>
<path transform="translate(432,151)" fill="#455256" d="M0 0 C1.875 1.8125 1.875 1.8125 3 4 C3 4.99 3 5.98 3 7 C4.79093191 7.08086147 6.58289628 7.13912702 8.375 7.1875 C9.37273437 7.22230469 10.37046875 7.25710937 11.3984375 7.29296875 C12.68621094 7.14794922 12.68621094 7.14794922 14 7 C14.66 6.01 15.32 5.02 16 4 C20.38004013 4.50057601 23.07467815 5.64448376 26 9 C25.98266928 11.11001487 25.62007776 13.02617074 25.23046875 15.09765625 C24.83300166 17.13401483 24.83300166 17.13401483 25.9375 19.4375 C28.63954769 21.48450582 30.81728174 21.46050411 34.12890625 21.74609375 C36 22 36 22 37.9375 23.125 C39.54263152 25.95758503 39.69781926 28.79688421 40 32 C36.375 35 36.375 35 33 35 C33.06201903 41.43455051 33.06201903 41.43455051 36.5625 46.5625 C37.366875 47.036875 38.17125 47.51125 39 48 C38.5205537 52.21912747 37.83374881 54.79663178 35 58 C32.36 57.67 29.72 57.34 27 57 C25.17358164 60.09086185 24.88617705 61.95878995 25.25 65.5 C25.3125 67.8671875 25.3125 67.8671875 25 70 C22.25 72.625 22.25 72.625 19 74 C16.8125 73.9375 16.8125 73.9375 15 73 C14.319375 72.2265625 14.319375 72.2265625 13.625 71.4375 C11.96237867 69.66863275 11.96237867 69.66863275 8.8125 69.8125 C7.884375 69.874375 6.95625 69.93625 6 70 C5.01 72.31 4.02 74.62 3 77 C1.52093108 77.02689216 0.04172517 77.04634621 -1.4375 77.0625 C-2.26121094 77.07410156 -3.08492188 77.08570313 -3.93359375 77.09765625 C-6 77 -6 77 -7 76 C-7.04125 74.88625 -7.0825 73.7725 -7.125 72.625 C-7.558125 70.830625 -7.558125 70.830625 -8 69 C-11.26926446 66.77714927 -11.26926446 66.77714927 -15 66 C-16.485 66.99 -16.485 66.99 -18 68 C-20.9375 68.4375 -20.9375 68.4375 -24 68 C-26.5 65.875 -26.5 65.875 -28 63 C-27.40265389 60.97821315 -26.72351427 58.98014432 -26 57 C-26.09470166 53.95957831 -26.50675524 50.99946139 -27 48 C-27.9075 48.0825 -28.815 48.165 -29.75 48.25 C-33 48 -33 48 -35.3125 46.4375 C-37.46797134 43.32404139 -37.7128051 40.73353364 -38 37 C-37.38511719 36.81566406 -36.77023437 36.63132813 -36.13671875 36.44140625 C-31.076166 34.69069453 -31.076166 34.69069453 -27.734375 30.73046875 C-27.01575819 28.4935978 -26.42922752 26.30894805 -26 24 C-26.66 24 -27.32 24 -28 24 C-30.17175481 20.74236778 -30.46043998 19.77560787 -30 16 C-28.8125 13.6875 -28.8125 13.6875 -27 12 C-23.92547186 11.51454819 -22.31549055 11.85014199 -19.5 13.1875 C-18.675 13.455625 -17.85 13.72375 -17 14 C-14.30480288 12.69972025 -14.30480288 12.69972025 -12 11 C-11.34 11 -10.68 11 -10 11 C-10 8.03 -10 5.06 -10 2 C-6.00025484 0.00012742 -4.33277245 -0.55311989 0 0 Z"/>
<path transform="translate(361,119)" fill="#FDD0CF" d="M0 0 C6.74214829 6.49024385 9.50712029 12.36148259 9.9921875 21.71484375 C10.012455 30.2373262 7.74382175 35.70521213 2 42 C-4.12992607 48.12992607 -10.47897205 50.11226993 -19 50.4375 C-27.68897223 50.14015874 -32.84794379 47.55307511 -38.875 41.3125 C-45.00876541 33.9798136 -46.60952154 27.43032902 -46.35546875 17.93359375 C-45.57135001 11.46245999 -42.60553254 5.60553254 -38 1 C-26.8010652 -7.57418445 -11.48964368 -9.05244653 0 0 Z"/>
<path transform="translate(439.3125,172.91015625)" fill="#F8CFCF" d="M0 0 C4.92410855 2.51874631 8.52585518 4.82670854 10.6875 10.08984375 C11.62936038 16.47449021 11.89083993 22.27457121 8.0625 27.71484375 C4.10983773 32.09232486 0.65507484 33.87122432 -5.25 34.52734375 C-10.7784534 34.30535996 -14.43827797 31.66013788 -18.625 28.15234375 C-22.17420315 23.81442879 -22.71269988 19.76311003 -22.55859375 14.296875 C-22.02423147 9.50457836 -19.91777041 6.42519317 -16.375 3.33984375 C-10.9770585 -0.62599082 -6.74235651 -2.65366396 0 0 Z"/>
<path transform="translate(170,89)" fill="#C66E76" d="M0 0 C0.66 0 1.32 0 2 0 C2 0.99 2 1.98 2 3 C1.34 3.33 0.68 3.66 0 4 C-0.12375 4.598125 -0.2475 5.19625 -0.375 5.8125 C-1 8 -1 8 -3 9.9375 C-5.22044524 11.84935818 -5.22044524 11.84935818 -5.5 14.625 C-5.665 15.40875 -5.83 16.1925 -6 17 C-6.65226562 17.29003906 -7.30453125 17.58007812 -7.9765625 17.87890625 C-10.18162079 18.80490898 -10.18162079 18.80490898 -10.6796875 20.98828125 C-11.0674518 25.60267637 -11.12378056 28.75243887 -9 33 C-9 33.99 -9 34.98 -9 36 C-7.68 36.66 -6.36 37.32 -5 38 C-5.81791016 38.34611328 -5.81791016 38.34611328 -6.65234375 38.69921875 C-11.67419913 40.8710639 -16.43032311 43.28195286 -21.15234375 46.046875 C-23 47 -23 47 -25 47 C-25 45 -25 45 -23 43 C-23.66 42.67 -24.32 42.34 -25 42 C-24.34 40.68 -23.68 39.36 -23 38 C-26.3 37.67 -29.6 37.34 -33 37 C-29.05480343 32.75132677 -25.07632432 29.58282788 -19.4375 28 C-14.72424729 25.25774388 -13.97045781 22.03427393 -12.23828125 17.0078125 C-10.90242572 13.76298992 -9.28113702 11.64920041 -7 9 C-5.19166178 6.60032755 -3.38438703 4.20006386 -1.5859375 1.79296875 C-1.06257813 1.20128906 -0.53921875 0.60960938 0 0 Z"/>
<path transform="translate(339.6875,81.9375)" fill="#C79855" d="M0 0 C1.76923828 0.01353516 1.76923828 0.01353516 3.57421875 0.02734375 C4.47785156 0.03894531 5.38148438 0.05054687 6.3125 0.0625 C6.3125 0.3925 6.3125 0.7225 6.3125 1.0625 C2.3525 1.7225 -1.6075 2.3825 -5.6875 3.0625 C-5.0275 3.7225 -4.3675 4.3825 -3.6875 5.0625 C-4.326875 5.990625 -4.96625 6.91875 -5.625 7.875 C-7.77372093 10.90469943 -7.77372093 10.90469943 -8.6875 14.0625 C-10.75 14.75 -10.75 14.75 -12.6875 15.0625 C-12.6875 15.7225 -12.6875 16.3825 -12.6875 17.0625 C-23.07601351 20.94087838 -23.07601351 20.94087838 -27.6875 20.0625 C-28.73642238 18.42618108 -29.73656703 16.75764137 -30.6875 15.0625 C-33.27872743 14.17591534 -33.27872743 14.17591534 -35.6875 14.0625 C-35.6875 13.4025 -35.6875 12.7425 -35.6875 12.0625 C-33.5625 11.6875 -33.5625 11.6875 -30.6875 12.0625 C-28.44836748 13.85590357 -26.56295461 15.89702663 -24.6875 18.0625 C-19.98625654 16.8401767 -16.03229654 15.28541916 -11.6875 13.0625 C-11.0275 13.0625 -10.3675 13.0625 -9.6875 13.0625 C-9.6875 9.1025 -9.6875 5.1425 -9.6875 1.0625 C-6.26517028 -0.07827657 -3.60076783 -0.03565117 0 0 Z"/>
<path transform="translate(170,89)" fill="#C98589" d="M0 0 C0.66 0 1.32 0 2 0 C2 0.99 2 1.98 2 3 C1.01 3.495 1.01 3.495 0 4 C-0.12375 4.598125 -0.2475 5.19625 -0.375 5.8125 C-1 8 -1 8 -3 9.9375 C-5.22044524 11.84935818 -5.22044524 11.84935818 -5.5 14.625 C-5.665 15.40875 -5.83 16.1925 -6 17 C-6.65484375 17.28359375 -7.3096875 17.5671875 -7.984375 17.859375 C-10.22148548 18.8129948 -10.22148548 18.8129948 -10.609375 21.1640625 C-10.65578125 21.97617188 -10.7021875 22.78828125 -10.75 23.625 C-10.80671875 24.44226563 -10.8634375 25.25953125 -10.921875 26.1015625 C-10.94765625 26.72804688 -10.9734375 27.35453125 -11 28 C-12.65 28.66 -14.3 29.32 -16 30 C-17.37790311 25.86629068 -16.1077038 24.48274579 -14.1875 20.625 C-11.47437077 15.26382835 -8.34121915 10.39315345 -4.6875 5.625 C-4.25526123 5.05990723 -3.82302246 4.49481445 -3.37768555 3.91259766 C-2.30551039 2.56388864 -1.15866894 1.2751713 0 0 Z"/>
<path transform="translate(443,290)" fill="#F5D0D0" d="M0 0 C2.5 2.3125 2.5 2.3125 5 5 C5 5.99 5 6.98 5 8 C3.02 8.99 3.02 8.99 1 10 C1.99 11.485 1.99 11.485 3 13 C3.125 15.6875 3.125 15.6875 3 18 C-1.0144599 16.6618467 -2.35766442 14.23686108 -5 11 C-5.99 10.34 -6.98 9.68 -8 9 C-8 8.34 -8 7.68 -8 7 C-7.21625 6.938125 -6.4325 6.87625 -5.625 6.8125 C-4.75875 6.544375 -3.8925 6.27625 -3 6 C-1.68931667 3.55711372 -1.68931667 3.55711372 -1 1 C-0.67 0.67 -0.34 0.34 0 0 Z"/>
<path transform="translate(298,123)" fill="#C0924D" d="M0 0 C2 2 2 2 2.125 4.625 C2.08375 5.40875 2.0425 6.1925 2 7 C-2.1205746 8.99785435 -5.45194365 9.17835515 -10 9 C-10 9.66 -10 10.32 -10 11 C-10.99 11 -11.98 11 -13 11 C-13 14.96 -13 18.92 -13 23 C-11.68 23.66 -10.36 24.32 -9 25 C-9.66 25.33 -10.32 25.66 -11 26 C-13.125 25.0625 -13.125 25.0625 -15 24 C-15.02692484 21.70839681 -15.04636124 19.41670454 -15.0625 17.125 C-15.07410156 15.84882813 -15.08570313 14.57265625 -15.09765625 13.2578125 C-15 10 -15 10 -14 8 C-10.94846826 7.22251106 -7.88005961 6.65336038 -4.78515625 6.07421875 C-1.77432885 5.26293624 -1.77432885 5.26293624 -0.62109375 2.39453125 C-0.41613281 1.60433594 -0.21117187 0.81414062 0 0 Z"/>
<path transform="translate(319,125)" fill="#FACFB4" d="M0 0 C1 3 1 3 0.07421875 5.1796875 C-1.32202125 8.84545214 -1.25431216 12.26396034 -1.1875 16.125 C-1.18685547 16.84042969 -1.18621094 17.55585938 -1.18554688 18.29296875 C-1.15897902 21.45159104 -1.00523113 23.98430662 0 27 C0.99 27.33 1.98 27.66 3 28 C4.203125 29.77734375 4.203125 29.77734375 5.25 31.9375 C5.60578125 32.64777344 5.9615625 33.35804688 6.328125 34.08984375 C6.66070312 35.03537109 6.66070312 35.03537109 7 36 C6.67 36.66 6.34 37.32 6 38 C-1.02730107 30.93419317 -4.03126612 25.00350938 -4.4375 15 C-4.31294323 9.28504235 -2.79526932 4.94163683 0 0 Z"/>
<path transform="translate(362,121)" fill="#F9CDB3" d="M0 0 C6.64711388 6.28781042 8.4946403 10.64931207 9.0078125 19.69140625 C8.99567104 24.83331523 8.79345687 30.20654313 5 34 C5.16242188 33.17757812 5.32484375 32.35515625 5.4921875 31.5078125 C6.056441 27.61012297 6.1468595 23.8024238 6.125 19.875 C6.12886719 19.17246094 6.13273437 18.46992188 6.13671875 17.74609375 C6.13031314 14.35752363 6.05709649 11.23840671 5 8 C4.01 8 3.02 8 2 8 C0.74335022 5.09399739 0 3.20395416 0 0 Z"/>
<path transform="translate(400,166)" fill="#EED1D0" d="M0 0 C0.99 0.33 1.98 0.66 3 1 C2.979375 1.763125 2.95875 2.52625 2.9375 3.3125 C2.87057159 6.10185786 2.87057159 6.10185786 4 9 C4.66 9 5.32 9 6 9 C5.25 13.75 5.25 13.75 3 16 C3 14.02 3 12.04 3 10 C1.02 10 -0.96 10 -3 10 C-2.69201674 8.51988629 -2.378482 7.04092675 -2.0625 5.5625 C-1.88847656 4.73878906 -1.71445312 3.91507813 -1.53515625 3.06640625 C-1 1 -1 1 0 0 Z"/>
<path transform="translate(448,179)" fill="#545C60" d="M0 0 C1.98 0 3.96 0 6 0 C7.125 2.25 7.125 2.25 8 5 C7.125 7.3125 7.125 7.3125 6 9 C5.34 9 4.68 9 4 9 C3.67 10.98 3.34 12.96 3 15 C2.67 15 2.34 15 2 15 C1.93941406 14.25234375 1.87882812 13.5046875 1.81640625 12.734375 C1.73261719 11.74953125 1.64882813 10.7646875 1.5625 9.75 C1.48128906 8.77546875 1.40007812 7.8009375 1.31640625 6.796875 C1.04925416 4.43538247 0.64628032 2.28098935 0 0 Z"/>
<path transform="translate(392,371)" fill="#C47C84" d="M0 0 C0.99 0 1.98 0 3 0 C3 0.99 3 1.98 3 3 C3.99 3 4.98 3 6 3 C6 2.01 6 1.02 6 0 C6.66 0 7.32 0 8 0 C8 0.66 8 1.32 8 2 C8.66 2 9.32 2 10 2 C10 2.99 10 3.98 10 5 C6.5447173 6.72764135 2.76849737 6.6291985 -1 6 C-3.5625 3.5 -3.5625 3.5 -5 1 C-2.525 1.495 -2.525 1.495 0 2 C0 1.34 0 0.68 0 0 Z"/>
<path transform="translate(345.625,113.3125)" fill="#FCD1BB" d="M0 0 C1.12664062 0.07863281 2.25328125 0.15726562 3.4140625 0.23828125 C6.375 0.6875 6.375 0.6875 9.375 2.6875 C7.725 3.0175 6.075 3.3475 4.375 3.6875 C4.375 3.0275 4.375 2.3675 4.375 1.6875 C2.16595369 1.77525663 -0.04228593 1.88344367 -2.25 2 C-4.09464844 2.08701172 -4.09464844 2.08701172 -5.9765625 2.17578125 C-9.66832272 2.49600526 -9.66832272 2.49600526 -12.8359375 4.29296875 C-15.625 5.6875 -15.625 5.6875 -18 5.375 C-18.53625 5.148125 -19.0725 4.92125 -19.625 4.6875 C-18.39993102 4.03392722 -17.16970484 3.39001767 -15.9375 2.75 C-15.25300781 2.39035156 -14.56851562 2.03070313 -13.86328125 1.66015625 C-9.16973115 -0.37944929 -5.06063238 -0.38972686 0 0 Z"/>
<path transform="translate(471,185)" fill="#EAD2D4" d="M0 0 C-0.33 0.99 -0.66 1.98 -1 3 C-1.99 3 -2.98 3 -4 3 C-3.64873657 8.97147829 -2.19302635 10.91731645 2 15 C1.8125 17.3125 1.8125 17.3125 1 19 C0.34 18.67 -0.32 18.34 -1 18 C-0.67 16.68 -0.34 15.36 0 14 C-0.928125 13.566875 -0.928125 13.566875 -1.875 13.125 C-4 12 -4 12 -6 10 C-6.1953125 7.8359375 -6.1953125 7.8359375 -6.125 5.375 C-6.10695313 4.55773437 -6.08890625 3.74046875 -6.0703125 2.8984375 C-6.04710937 2.27195313 -6.02390625 1.64546875 -6 1 C-3 0 -3 0 0 0 Z"/>
<path transform="translate(516,166)" fill="#C46971" d="M0 0 C2.35953094 2.35953094 2.49141413 3.77895617 3 7 C2.34 7 1.68 7 1 7 C1 7.66 1 8.32 1 9 C0.21625 8.814375 -0.5675 8.62875 -1.375 8.4375 C-3.97089775 7.74037734 -3.97089775 7.74037734 -6 9 C-6 6.69 -6 4.38 -6 2 C-5.34 2.66 -4.68 3.32 -4 4 C-3.67 3.34 -3.34 2.68 -3 2 C-2.01 2 -1.02 2 0 2 C0 1.34 0 0.68 0 0 Z"/>
<path transform="translate(395,311)" fill="#526975" d="M0 0 C4.83407252 0.41434907 6.89537674 2.37793954 10 6 C10.33 6.99 10.66 7.98 11 9 C13.50447516 10.21869929 13.50447516 10.21869929 16 11 C14.02 11.99 14.02 11.99 12 13 C10.85872377 11.85872377 9.71776264 10.71713121 8.578125 9.57421875 C7.42694314 8.42588635 6.26987213 7.28344889 5.109375 6.14453125 C4.47515625 5.51933594 3.8409375 4.89414062 3.1875 4.25 C2.58292969 3.65703125 1.97835938 3.0640625 1.35546875 2.453125 C0 1 0 1 0 0 Z"/>
<path transform="translate(381,299)" fill="#EAD1D6" d="M0 0 C4.54822201 2.40490403 7.77351595 5.5367133 11.3125 9.1875 C11.86228516 9.74630859 12.41207031 10.30511719 12.97851562 10.88085938 C14.32363696 12.24937412 15.66246643 13.62406833 17 15 C12.9666466 15 11.16482462 13.39120082 8 11 C8 10.34 8 9.68 8 9 C7.01 9 6.02 9 5 9 C5 7.68 5 6.36 5 5 C4.01 4.67 3.02 4.34 2 4 C2 3.34 2 2.68 2 2 C1.34 2 0.68 2 0 2 C0 1.34 0 0.68 0 0 Z"/>
<path transform="translate(352.6875,187.3125)" fill="#C29445" d="M0 0 C1.15886719 0.07863281 2.31773437 0.15726563 3.51171875 0.23828125 C4.43597656 0.38652344 5.36023438 0.53476563 6.3125 0.6875 C6.6425 1.3475 6.9725 2.0075 7.3125 2.6875 C6.375 4.8125 6.375 4.8125 5.3125 6.6875 C5.3125 5.6975 5.3125 4.7075 5.3125 3.6875 C-0.39735978 2.94733299 -5.92936425 2.58280662 -11.6875 2.6875 C-10.6875 0.6875 -10.6875 0.6875 -9.04296875 0.04296875 C-5.95693831 -0.4227506 -3.11050557 -0.233375 0 0 Z"/>
<path transform="translate(430.75,149.9375)" fill="#E9D1D2" d="M0 0 C0.79921875 0.19464844 1.5984375 0.38929688 2.421875 0.58984375 C3.32679688 0.82380859 3.32679688 0.82380859 4.25 1.0625 C3.59 1.7225 2.93 2.3825 2.25 3.0625 C1.92 2.7325 1.59 2.4025 1.25 2.0625 C-0.27519276 2.15187803 -1.79681929 2.30787146 -3.3125 2.5 C-5.5090625 2.7784375 -5.5090625 2.7784375 -7.75 3.0625 C-8.08 6.0325 -8.41 9.0025 -8.75 12.0625 C-9.41 12.0625 -10.07 12.0625 -10.75 12.0625 C-10.80395478 10.43786158 -10.84277195 8.81271459 -10.875 7.1875 C-10.89820313 6.28257812 -10.92140625 5.37765625 -10.9453125 4.4453125 C-10.75 2.0625 -10.75 2.0625 -8.75 0.0625 C-5.53331589 -1.14031991 -3.29146062 -0.82286516 0 0 Z"/>
<path transform="translate(286,149)" fill="#FED5BA" d="M0 0 C3.63 0.66 7.26 1.32 11 2 C14.42608627 12.41530227 14.42608627 12.41530227 13 16 C12.34 16.66 11.68 17.32 11 18 C10.95101563 17.40832031 10.90203125 16.81664062 10.8515625 16.20703125 C10.43793678 9.77682953 10.43793678 9.77682953 8 4 C5.41458753 2.69407591 2.78092796 1.79547474 0 1 C0 0.67 0 0.34 0 0 Z"/>
<path transform="translate(449,184)" fill="#F3D7D9" d="M0 0 C0.33 0 0.66 0 1 0 C1.86140345 11.65766007 1.86140345 11.65766007 -1.5 16.25 C-2.325 17.1575 -3.15 18.065 -4 19 C-4.66 18.01 -5.32 17.02 -6 16 C-4.79618552 13.50638429 -3.54571278 11.31856917 -2 9 C-1.34 9 -0.68 9 0 9 C0 6.03 0 3.06 0 0 Z"/>
<path transform="translate(495,138)" fill="#C98189" d="M0 0 C3.18673962 1.40301147 5.32221406 3.07765071 7.75 5.5625 C8.67039062 6.49255859 8.67039062 6.49255859 9.609375 7.44140625 C11 9 11 9 11 10 C9.35 10 7.7 10 6 10 C6 9.34 6 8.68 6 8 C5.01 8.33 4.02 8.66 3 9 C2.67 7.35 2.34 5.7 2 4 C1.01 3.67 0.02 3.34 -1 3 C-0.67 2.01 -0.34 1.02 0 0 Z"/>
<path transform="translate(253,110)" fill="#C07479" d="M0 0 C-0.33 0.99 -0.66 1.98 -1 3 C-1.57524414 2.84152588 -2.15048828 2.68305176 -2.74316406 2.51977539 C-4.90939777 2.02086674 -6.89322683 1.80111676 -9.109375 1.68359375 C-9.86347656 1.64169922 -10.61757812 1.59980469 -11.39453125 1.55664062 C-12.56048828 1.49766602 -12.56048828 1.49766602 -13.75 1.4375 C-14.93916016 1.37272461 -14.93916016 1.37272461 -16.15234375 1.30664062 C-18.10137815 1.20097009 -20.05066748 1.10002034 -22 1 C-15.88357904 -3.07761398 -7.00982639 -1.058087 0 0 Z"/>
<path transform="translate(432,151)" fill="#626162" d="M0 0 C1.875 1.8125 1.875 1.8125 3 4 C3 4.99 3 5.98 3 7 C4.65 7 6.3 7 8 7 C8 7.33 8 7.66 8 8 C5.125 8.1875 5.125 8.1875 2 8 C0 5 0 5 0 2 C-3.46941546 2.45822468 -6.67395049 2.89131683 -10 4 C-9.67 3.01 -9.34 2.02 -9 1 C-5.70024471 -0.09991843 -3.45570193 -0.35996895 0 0 Z"/>
<path transform="translate(109,206)" fill="#CD9196" d="M0 0 C0.33 0.66 0.66 1.32 1 2 C1.66 2 2.32 2 3 2 C7.59225513 12.37357631 7.59225513 12.37357631 7 18 C4.43320517 15.43320517 3.66651446 12.94989318 2.375 9.5625 C1.92898437 8.40878906 1.48296875 7.25507813 1.0234375 6.06640625 C0 3 0 3 0 0 Z"/>
<path transform="translate(354,210)" fill="#EBD6D8" d="M0 0 C2.89608593 -0.05413245 5.79115195 -0.09373641 8.6875 -0.125 C9.91243164 -0.15013672 9.91243164 -0.15013672 11.16210938 -0.17578125 C15.57092929 -0.2114802 18.98731576 -0.07580814 23 2 C21.5 3.125 21.5 3.125 19 4 C17.11352208 3.56975065 15.22794672 3.1260997 13.37109375 2.58203125 C8.99188172 1.50706816 4.48785776 1.31349006 0 1 C0 0.67 0 0.34 0 0 Z"/>
<path transform="translate(303,98)" fill="#C1934C" d="M0 0 C-1 3 -1 3 -2.625 4.4375 C-3.07875 4.953125 -3.5325 5.46875 -4 6 C-3.77242269 8.16299211 -3.77242269 8.16299211 -3 10 C-2.34 10 -1.68 10 -1 10 C-1 10.66 -1 11.32 -1 12 C-1.66 12 -2.32 12 -3 12 C-3.33 12.66 -3.66 13.32 -4 14 C-5.89423446 11.34807176 -7.01823249 9.74753216 -6.9375 6.4375 C-5.66579166 3.13105831 -3.82094133 0 0 0 Z"/>
<path transform="translate(318,246)" fill="#4B6470" d="M0 0 C3.36525621 0.46417327 5.40608501 1.86928411 8 4 C7.67 4.99 7.34 5.98 7 7 C6.01 6.34 5.02 5.68 4 5 C3.34 5 2.68 5 2 5 C1.67 6.65 1.34 8.3 1 10 C0.67 10 0.34 10 0 10 C-0.19412181 8.52168779 -0.38012131 7.04230684 -0.5625 5.5625 C-0.66691406 4.73878906 -0.77132813 3.91507813 -0.87890625 3.06640625 C-0.91886719 2.38449219 -0.95882813 1.70257813 -1 1 C-0.67 0.67 -0.34 0.34 0 0 Z"/>
<path transform="translate(430,172)" fill="#DDC9C9" d="M0 0 C6.59229145 -0.7013076 10.49376557 1.50397814 16 5 C15.01 6.485 15.01 6.485 14 8 C13.67 7.34 13.34 6.68 13 6 C12.34 6 11.68 6 11 6 C11 5.34 11 4.68 11 4 C7.37 3.34 3.74 2.68 0 2 C0 1.34 0 0.68 0 0 Z"/>
<path transform="translate(342,190)" fill="#F6CAAF" d="M0 0 C1.32 0.33 2.64 0.66 4 1 C3.34 1 2.68 1 2 1 C1.82984375 1.61488281 1.6596875 2.22976562 1.484375 2.86328125 C-0.51972556 9.54716981 -0.51972556 9.54716981 -3.1875 12.0625 C-3.785625 12.371875 -4.38375 12.68125 -5 13 C-6.32 12.01 -7.64 11.02 -9 10 C-8.071875 9.835 -7.14375 9.67 -6.1875 9.5 C-2.60843752 7.8157353 -2.41028278 7.3893481 -1.125 3.875 C-0.72720573 2.59017024 -0.34467435 1.30008745 0 0 Z"/>
<path transform="translate(145,119)" fill="#CC8087" d="M0 0 C0.66 0.33 1.32 0.66 2 1 C1.835 1.804375 1.67 2.60875 1.5 3.4375 C0.96808161 5.7284443 0.96808161 5.7284443 1 7 C-1.97 7 -4.94 7 -8 7 C-5.4837822 4.39391727 -2.94865641 2.10618315 0 0 Z"/>
<path transform="translate(404,203)" fill="#E4CBCC" d="M0 0 C0.99 0 1.98 0 3 0 C2.73958333 1.953125 2.47916667 3.90625 2.21875 5.859375 C1.93222643 8.30458395 1.93222643 8.30458395 2 12 C1.01 12.33 0.02 12.66 -1 13 C-1.0272415 11.58344207 -1.04650467 10.16672955 -1.0625 8.75 C-1.07410156 7.96109375 -1.08570313 7.1721875 -1.09765625 6.359375 C-1.00385306 4.09308998 -0.63241063 2.1711105 0 0 Z"/>
<path transform="translate(402,186)" fill="#625D61" d="M0 0 C-0.33 0.99 -0.66 1.98 -1 3 C-1.66 3.309375 -2.32 3.61875 -3 3.9375 C-5.20605562 4.82027141 -5.20605562 4.82027141 -5.75 7.125 C-5.8325 7.74375 -5.915 8.3625 -6 9 C-8 6 -8 6 -7.9375 3.4375 C-7 1 -7 1 -4.5625 -0.375 C-2 -1 -2 -1 0 0 Z"/>
<path transform="translate(135,126)" fill="#CE9297" d="M0 0 C0.66 0.33 1.32 0.66 2 1 C-1.34003602 5.32239956 -4.32751069 8.17477391 -9 11 C-9.66 10.67 -10.32 10.34 -11 10 C-9.73232923 8.70522938 -8.46073776 7.41429661 -7.1875 6.125 C-6.47980469 5.40570313 -5.77210938 4.68640625 -5.04296875 3.9453125 C-3 2 -3 2 0 0 Z"/>
<path transform="translate(499,251)" fill="#CE868D" d="M0 0 C2.97 0.495 2.97 0.495 6 1 C4.63016497 4.16115776 4.0109362 4.9927092 1 7 C0.34 6.67 -0.32 6.34 -1 6 C-0.67 4.02 -0.34 2.04 0 0 Z"/>
<path transform="translate(318,153)" fill="#FCD4BF" d="M0 0 C1.32 0 2.64 0 4 0 C4.69710731 1.28650706 5.38242876 2.57940665 6.0625 3.875 C6.63677734 4.95394531 6.63677734 4.95394531 7.22265625 6.0546875 C7.47917969 6.69664062 7.73570312 7.33859375 8 8 C7.67 8.66 7.34 9.32 7 10 C5.82739389 8.71372289 4.6620717 7.42080217 3.5 6.125 C2.8503125 5.40570313 2.200625 4.68640625 1.53125 3.9453125 C0 2 0 2 0 0 Z"/>
<path transform="translate(480,356)" fill="#738893" d="M0 0 C0.33 0.99 0.66 1.98 1 3 C-2.03797468 8.62587904 -2.03797468 8.62587904 -5.25 9.875 C-5.8275 9.91625 -6.405 9.9575 -7 10 C-6.75 8.125 -6.75 8.125 -6 6 C-4.68352881 5.30062468 -3.34977849 4.63270867 -2 4 C-1.67 3.01 -1.34 2.02 -1 1 C-0.67 0.67 -0.34 0.34 0 0 Z"/>
<path transform="translate(335,317)" fill="#C98389" d="M0 0 C-0.33 0.66 -0.66 1.32 -1 2 C-0.34 2.33 0.32 2.66 1 3 C-1.91482778 3.80967438 -3.46113217 4.21845993 -6.3125 3.0625 C-6.869375 2.711875 -7.42625 2.36125 -8 2 C-8 1.34 -8 0.68 -8 0 C-2.25 -1.125 -2.25 -1.125 0 0 Z"/>
<path transform="translate(468.5625,278.9375)" fill="#C9848A" d="M0 0 C1.2065625 0.0309375 1.2065625 0.0309375 2.4375 0.0625 C0.88249019 3.87934226 -1.59845495 6.25445732 -4.5625 9.0625 C-3.56521739 0.08695652 -3.56521739 0.08695652 0 0 Z"/>
<path transform="translate(369,213)" fill="#4A646D" d="M0 0 C11.10576923 2.01923077 11.10576923 2.01923077 13.9375 5.125 C14.288125 5.74375 14.63875 6.3625 15 7 C12.69 6.67 10.38 6.34 8 6 C8 5.01 8 4.02 8 3 C7.05125 2.87625 6.1025 2.7525 5.125 2.625 C2 2 2 2 0 0 Z"/>
<path transform="translate(297,177)" fill="#C39654" d="M0 0 C0.66 0 1.32 0 2 0 C3.625 2.5 3.625 2.5 5 5 C9.455 4.505 9.455 4.505 14 4 C11.06171403 6.50298434 8.82097239 7.46930939 5 8 C3.02 5.69 1.04 3.38 -1 1 C-0.67 0.67 -0.34 0.34 0 0 Z"/>
<path transform="translate(299,160)" fill="#C19454" d="M0 0 C0.66 0 1.32 0 2 0 C2.50427154 4.23588093 2.26281885 5.65418572 -0.375 9.125 C-1.24125 10.07375 -2.1075 11.0225 -3 12 C-4.27852287 14.21587348 -4.27852287 14.21587348 -5 16 C-5.68359375 14.25 -5.68359375 14.25 -6 12 C-4.78515625 10 -4.78515625 10 -3.0625 8 C-0.35255454 4.8394258 0 4.4223286 0 0 Z"/>
<path transform="translate(123,137)" fill="#CA9096" d="M0 0 C0.671875 1.73828125 0.671875 1.73828125 1 4 C-0.109375 6.10546875 -0.109375 6.10546875 -1.75 8.1875 C-2.28109375 8.88230469 -2.8121875 9.57710937 -3.359375 10.29296875 C-5 12 -5 12 -8 13 C-8 12.34 -8 11.68 -8 11 C-7.34 11 -6.68 11 -6 11 C-5.7525 10.29875 -5.505 9.5975 -5.25 8.875 C-3.83911974 5.62997541 -2.02104602 2.89683263 0 0 Z"/>
<path transform="translate(451,79)" fill="#C97D84" d="M0 0 C3.96 1.98 3.96 1.98 8 4 C6.625 6.5 6.625 6.5 5 9 C4.34 9 3.68 9 3 9 C2.67 6.69 2.34 4.38 2 2 C1.34 2 0.68 2 0 2 C0 1.34 0 0.68 0 0 Z"/>
<path transform="translate(289,40)" fill="#D29298" d="M0 0 C5.60461531 0.42089996 10.72086547 0.91613111 16 3 C15.01 3.66 14.02 4.32 13 5 C13 4.34 13 3.68 13 3 C12.01 3 11.02 3 10 3 C9.67 3.66 9.34 4.32 9 5 C9 4.34 9 3.68 9 3 C7.68 3.33 6.36 3.66 5 4 C4.67 3.01 4.34 2.02 4 1 C1.98491642 0.26676204 1.98491642 0.26676204 0 0 Z"/>
<path transform="translate(318,182)" fill="#BE8F49" d="M0 0 C1.99954746 -0.04254356 4.00041636 -0.04080783 6 0 C7.94090826 1.94090826 7.39919435 5.47293902 7.5625 8.0625 C7.64628906 9.35285156 7.73007812 10.64320313 7.81640625 11.97265625 C7.87699219 12.97167969 7.93757813 13.97070312 8 15 C7.34 15 6.68 15 6 15 C6 11.04 6 7.08 6 3 C4.02 2.34 2.04 1.68 0 1 C0 0.67 0 0.34 0 0 Z"/>
<path transform="translate(381,96)" fill="#C29248" d="M0 0 C0.99 0.99 1.98 1.98 3 3 C2.8787464 7.72889039 1.58932328 8.41067672 -2 12 C-1.34 8.04 -0.68 4.08 0 0 Z"/>
<path transform="translate(364,258)" fill="#516D78" d="M0 0 C0.93423645 3.01031744 1.04449911 3.86650268 0 7 C-3.0625 8.1875 -3.0625 8.1875 -6 9 C-4.47291037 5.56404834 -2.40072955 2.88087546 0 0 Z"/>
<path transform="translate(401,192)" fill="#4F5A5E" d="M0 0 C2 1.8125 2 1.8125 4 4 C4 4.99 4 5.98 4 7 C2.02 7 0.04 7 -2 7 C-1.01 6.34 -0.02 5.68 1 5 C0.01 4.34 -0.98 3.68 -2 3 C-1.34 2.01 -0.68 1.02 0 0 Z M4 2 C7 3 7 3 7 3 Z"/>
<path transform="translate(435,154)" fill="#F4D3D5" d="M0 0 C1.485 0.99 1.485 0.99 3 2 C4.68076231 1.36971413 6.34795544 0.70211894 8 0 C8.99 0.33 9.98 0.66 11 1 C10.01 1.495 10.01 1.495 9 2 C9 2.99 9 3.98 9 5 C6.03 4.67 3.06 4.34 0 4 C0 2.68 0 1.36 0 0 Z"/>
<path transform="translate(445,301)" fill="#E0D3D1" d="M0 0 C0.33 2.31 0.66 4.62 1 7 C-2.68802044 5.77065985 -3.72356973 4.06140622 -6 1 C-3 0 -3 0 0 0 Z"/>
<path transform="translate(383,299)" fill="#4D616D" d="M0 0 C4.44842565 1.35924117 6.29735949 3.27221998 9 7 C9.66 7.66 10.32 8.32 11 9 C8 9 8 9 5.95703125 7.28515625 C5.24933594 6.55167969 4.54164063 5.81820313 3.8125 5.0625 C3.09707031 4.33160156 2.38164062 3.60070312 1.64453125 2.84765625 C0 1 0 1 0 0 Z"/>
<path transform="translate(258,59)" fill="#F9C6C6" d="M0 0 C-1.76371818 1.03307771 -3.53625033 2.05112049 -5.3125 3.0625 C-6.79169922 3.91521484 -6.79169922 3.91521484 -8.30078125 4.78515625 C-11 6 -11 6 -14 5 C-3.83505155 -1.27835052 -3.83505155 -1.27835052 0 0 Z"/>
<path transform="translate(379,297)" fill="#E1D1D5" d="M0 0 C0.66 0.66 1.32 1.32 2 2 C-2.33333333 2 -6.66666667 2 -11 2 C-11 1.34 -11 0.68 -11 0 C-6.88092254 -1.37302582 -4.27865333 -0.74706646 0 0 Z"/>
<path transform="translate(451,294)" fill="#C6858B" d="M0 0 C2.31 0.33 4.62 0.66 7 1 C4.75 3.0625 4.75 3.0625 2 5 C-0.3125 4.75 -0.3125 4.75 -2 4 C-2 3.34 -2 2.68 -2 2 C-1.34 2 -0.68 2 0 2 C0 1.34 0 0.68 0 0 Z"/>
<path transform="translate(386,220)" fill="#536A79" d="M0 0 C2.31 1.98 4.62 3.96 7 6 C6.67 6.66 6.34 7.32 6 8 C3.9375 8.625 3.9375 8.625 2 9 C2.33 7.35 2.66 5.7 3 4 C2.01 4 1.02 4 0 4 C0 2.68 0 1.36 0 0 Z"/>
<path transform="translate(515,224)" fill="#BE686E" d="M0 0 C1.32 0 2.64 0 4 0 C4.625 1.875 4.625 1.875 5 4 C4.34 4.66 3.68 5.32 3 6 C2.01 6 1.02 6 0 6 C-1.125 2.25 -1.125 2.25 0 0 Z"/>
<path transform="translate(289,149)" fill="#C79958" d="M0 0 C1.47906892 -0.02689216 2.95827483 -0.04634621 4.4375 -0.0625 C5.26121094 -0.07410156 6.08492188 -0.08570313 6.93359375 -0.09765625 C9 0 9 0 10 1 C10.04063832 2.66617115 10.042721 4.33388095 10 6 C9.34 6 8.68 6 8 6 C8 4.68 8 3.36 8 2 C5.36 1.67 2.72 1.34 0 1 C0 0.67 0 0.34 0 0 Z"/>
<path transform="translate(391,49)" fill="#C97F88" d="M0 0 C3.24208567 0.35049575 4.61527704 0.56221181 6.8125 3.0625 C7.204375 3.701875 7.59625 4.34125 8 5 C5.69 5 3.38 5 1 5 C0.67 3.35 0.34 1.7 0 0 Z"/>
<path transform="translate(376,356)" fill="#CF9197" d="M0 0 C2.475 0.495 2.475 0.495 5 1 C5.66 3.97 6.32 6.94 7 10 C5 9 5 9 4 6 C3.319375 5.319375 2.63875 4.63875 1.9375 3.9375 C1.298125 3.298125 0.65875 2.65875 0 2 C0 1.34 0 0.68 0 0 Z"/>
<path transform="translate(368,346)" fill="#CC8288" d="M0 0 C0.66 0 1.32 0 2 0 C2 0.66 2 1.32 2 2 C4.31 2.66 6.62 3.32 9 4 C8.67 4.66 8.34 5.32 8 6 C7.34 6 6.68 6 6 6 C5.67 6.66 5.34 7.32 5 8 C4.16382818 6.8562364 3.33113541 5.70992861 2.5 4.5625 C2.0359375 3.92441406 1.571875 3.28632813 1.09375 2.62890625 C0 1 0 1 0 0 Z"/>
<path transform="translate(325,280)" fill="#536C77" d="M0 0 C2 0 2 0 3.625 1.375 C5 3 5 3 5 5 C6.32 4.67 7.64 4.34 9 4 C8.67 5.65 8.34 7.3 8 9 C6.84775972 8.07038578 5.70340824 7.1309875 4.5625 6.1875 C3.60537109 5.40439453 3.60537109 5.40439453 2.62890625 4.60546875 C1 3 1 3 0 0 Z"/>
<path transform="translate(508,242)" fill="#C37880" d="M0 0 C0.66 0 1.32 0 2 0 C2.6875 1.75 2.6875 1.75 3 4 C1.6875 6.25 1.6875 6.25 0 8 C-0.66 8 -1.32 8 -2 8 C-2.33 6.68 -2.66 5.36 -3 4 C-2.01 4 -1.02 4 0 4 C0 2.68 0 1.36 0 0 Z"/>
<path transform="translate(459,208)" fill="#E7CFD0" d="M0 0 C0.99 0.33 1.98 0.66 3 1 C3 4 3 4 1.6875 5.38671875 C0.125 6.59114583 -1.4375 7.79557292 -3 9 C-3.26218749 5.85375007 -3.24754367 4.38162983 -1.5 1.6875 C-1.005 1.130625 -0.51 0.57375 0 0 Z"/>
<path transform="translate(475,336)" fill="#627D89" d="M0 0 C0.33 0.99 0.66 1.98 1 3 C1.99 3.33 2.98 3.66 4 4 C4.6875 6.0625 4.6875 6.0625 5 8 C3.35 7.67 1.7 7.34 0 7 C0 4.69 0 2.38 0 0 Z"/>
<path transform="translate(414,329)" fill="#576873" d="M0 0 C3.28247841 0.87532757 5.50854152 1.50854152 7.9375 3.9375 C8.288125 4.618125 8.63875 5.29875 9 6 C8.67 6.99 8.34 7.98 8 9 C8 8.34 8 7.68 8 7 C7.01 6.67 6.02 6.34 5 6 C5 5.34 5 4.68 5 4 C4.360625 3.71125 3.72125 3.4225 3.0625 3.125 C1 2 1 2 0 0 Z"/>
<path transform="translate(241,241)" fill="#BD686F" d="M0 0 C2.475 0.495 2.475 0.495 5 1 C5 1.66 5 2.32 5 3 C5.66 3.33 6.32 3.66 7 4 C5.1875 5.0625 5.1875 5.0625 3 6 C2.01 5.67 1.02 5.34 0 5 C0.66 3.68 1.32 2.36 2 1 C1.34 0.67 0.68 0.34 0 0 Z"/>
<path transform="translate(449,154)" fill="#E3C7CA" d="M0 0 C3.34252724 -0.07427838 5.8035914 -0.06546953 9 1 C9 2.65 9 4.3 9 6 C6.03 4.35 3.06 2.7 0 1 C0 0.67 0 0.34 0 0 Z"/>
<path transform="translate(120,150)" fill="#CE7B85" d="M0 0 C0 0.66 0 1.32 0 2 C-0.66 2 -1.32 2 -2 2 C-1.67 2.99 -1.34 3.98 -1 5 C-3.475 4.01 -3.475 4.01 -6 3 C-6 2.01 -6 1.02 -6 0 C-3.50907189 -1.24546405 -2.58919267 -0.7767578 0 0 Z"/>
<path transform="translate(491,126)" fill="#C88388" d="M0 0 C0.33 0 0.66 0 1 0 C1.66 3.63 2.32 7.26 3 11 C2.01 11.33 1.02 11.66 0 12 C-1.03159626 8.90521121 -0.97482862 7.47368607 -0.5625 4.3125 C-0.46066406 3.50425781 -0.35882813 2.69601563 -0.25390625 1.86328125 C-0.17011719 1.24839844 -0.08632813 0.63351563 0 0 Z"/>
<path transform="translate(173,273)" fill="#D38D94" d="M0 0 C1.875 1.5625 1.875 1.5625 3 3 C1.741875 2.87625 0.48375 2.7525 -0.8125 2.625 C-1.87404297 2.52058594 -1.87404297 2.52058594 -2.95703125 2.4140625 C-5 2 -5 2 -8 0 C-5.06317146 -1.46841427 -3.13175678 -0.76696084 0 0 Z"/>
<path transform="translate(391,224)" fill="#F1D6D8" d="M0 0 C2.97 0.495 2.97 0.495 6 1 C6.33 2.65 6.66 4.3 7 6 C6.01 6 5.02 6 4 6 C1.8125 3 1.8125 3 0 0 Z"/>
<path transform="translate(460,212)" fill="#F9D7D6" d="M0 0 C0.99 0.66 1.98 1.32 3 2 C2.525625 2.391875 2.05125 2.78375 1.5625 3.1875 C-0.35179633 5.40808374 -0.61266988 7.13375709 -1 10 C-3 7 -3 7 -2.75 4.4375 C-2 2 -2 2 0 0 Z"/>
<path transform="translate(443,169)" fill="#4D575D" d="M0 0 C1.32 0.66 2.64 1.32 4 2 C2.515 4.475 2.515 4.475 1 7 C0.01 6.34 -0.98 5.68 -2 5 C-1.34 3.35 -0.68 1.7 0 0 Z"/>
<path transform="translate(299,112)" fill="#FBD0BA" d="M0 0 C1.485 0.99 1.485 0.99 3 2 C2.25 6.75 2.25 6.75 0 9 C-1.125 2.25 -1.125 2.25 0 0 Z"/>
<path transform="translate(211,274)" fill="#CB8A8F" d="M0 0 C2.375 0.6875 2.375 0.6875 5 2 C6.3125 4.625 6.3125 4.625 7 7 C4.13302508 5.71480435 2.02392288 4.42870746 0 2 C0 1.34 0 0.68 0 0 Z"/>
<path transform="translate(484,111)" fill="#BE6870" d="M0 0 C0.33 0.99 0.66 1.98 1 3 C1.66 3 2.32 3 3 3 C2.67 4.32 2.34 5.64 2 7 C1.01 7 0.02 7 -1 7 C-0.67 4.69 -0.34 2.38 0 0 Z"/>
<path transform="translate(261,41)" fill="#CD7E85" d="M0 0 C1.65 0 3.3 0 5 0 C4.67 1.65 4.34 3.3 4 5 C2.68 5.33 1.36 5.66 0 6 C0 4.02 0 2.04 0 0 Z"/>
<path transform="translate(466,366)" fill="#90A4AB" d="M0 0 C2.475 0.99 2.475 0.99 5 2 C1.79619983 4.13586678 0.98060033 4.23132175 -2.6875 4.125 C-3.89986328 4.09792969 -3.89986328 4.09792969 -5.13671875 4.0703125 C-6.05904297 4.03550781 -6.05904297 4.03550781 -7 4 C-7 3.67 -7 3.34 -7 3 C-4.69 3 -2.38 3 0 3 C0 2.01 0 1.02 0 0 Z"/>
<path transform="translate(231,283)" fill="#BE6C73" d="M0 0 C-0.33 1.32 -0.66 2.64 -1 4 C-2.32 4 -3.64 4 -5 4 C-5.33 3.34 -5.66 2.68 -6 2 C-3 0 -3 0 0 0 Z"/>
<path transform="translate(405,216)" fill="#F5D7D7" d="M0 0 C0.556875 0.474375 1.11375 0.94875 1.6875 1.4375 C4.18346074 3.12395996 6.0446237 3.58953107 9 4 C8.67 4.66 8.34 5.32 8 6 C4.17902761 5.46930939 1.93828597 4.50298434 -1 2 C-0.67 1.34 -0.34 0.68 0 0 Z"/>
<path transform="translate(201.06640625,218.90234375)" fill="#C1777B" d="M0 0 C1.23556641 0.01740234 1.23556641 0.01740234 2.49609375 0.03515625 C3.32238281 0.04417969 4.14867187 0.05320313 5 0.0625 C5.63808594 0.07410156 6.27617187 0.08570313 6.93359375 0.09765625 C4.33877246 2.69247754 2.5347575 2.79755927 -1.06640625 3.09765625 C-1.72640625 2.43765625 -2.38640625 1.77765625 -3.06640625 1.09765625 C-2.06640625 0.09765625 -2.06640625 0.09765625 0 0 Z"/>
<path transform="translate(379,212)" fill="#DDC8CB" d="M0 0 C0.66 0 1.32 0 2 0 C2.66 1.98 3.32 3.96 4 6 C1.03 5.01 -1.94 4.02 -5 3 C-5 2.67 -5 2.34 -5 2 C-3.35 2 -1.7 2 0 2 C0 1.34 0 0.68 0 0 Z"/>
<path transform="translate(458,160)" fill="#E8D2D3" d="M0 0 C2.56687367 3.8503105 1.83288724 5.58569763 1 10 C0.01 9.34 -0.98 8.68 -2 8 C-1.34 5.36 -0.68 2.72 0 0 Z"/>
<path transform="translate(297,155)" fill="#F6CDAD" d="M0 0 C2.72727273 5.45454545 2.72727273 5.45454545 3 9 C2.01 9.99 1.02 10.98 0 12 C0 8.04 0 4.08 0 0 Z"/>
<path transform="translate(506,148)" fill="#D09298" d="M0 0 C1.65 1.65 3.3 3.3 5 5 C4.67 5.66 4.34 6.32 4 7 C2.68 7 1.36 7 0 7 C-1.33332095 4.3333581 -0.67102033 2.83319697 0 0 Z"/>
<path transform="translate(397,363)" fill="#C3757A" d="M0 0 C4 4.75 4 4.75 4 7 C2.35 7 0.7 7 -1 7 C-0.67 4.69 -0.34 2.38 0 0 Z"/>
<path transform="translate(400,317)" fill="#E9D5D5" d="M0 0 C2.97 1.98 2.97 1.98 6 4 C5.67 4.99 5.34 5.98 5 7 C4.01 7 3.02 7 2 7 C1.855625 6.401875 1.71125 5.80375 1.5625 5.1875 C1.1127561 3.43849596 0.57107659 1.71322977 0 0 Z"/>
<path transform="translate(318,310)" fill="#C9858B" d="M0 0 C0.66 0.33 1.32 0.66 2 1 C1.67 1.66 1.34 2.32 1 3 C1.99 3.33 2.98 3.66 4 4 C4 4.66 4 5.32 4 6 C1.5625 5.1875 1.5625 5.1875 -1 4 C-1.33 3.01 -1.66 2.02 -2 1 C-1.34 0.67 -0.68 0.34 0 0 Z"/>
<path transform="translate(381,299)" fill="#DECCD2" d="M0 0 C3.53600465 1.91135386 5.78972846 3.62642766 8 7 C7.01 7 6.02 7 5 7 C5 6.34 5 5.68 5 5 C4.01 4.67 3.02 4.34 2 4 C2 3.34 2 2.68 2 2 C1.34 2 0.68 2 0 2 C0 1.34 0 0.68 0 0 Z"/>
<path transform="translate(406,163)" fill="#3C4949" d="M0 0 C2.475 0.495 2.475 0.495 5 1 C5 1.99 5 2.98 5 4 C3.68 4.33 2.36 4.66 1 5 C0.67 3.35 0.34 1.7 0 0 Z"/>
<path transform="translate(478,131)" fill="#F4B7BA" d="M0 0 C0.33 0 0.66 0 1 0 C1 3.96 1 7.92 1 12 C0.01 11.01 -0.98 10.02 -2 9 C-1.85546875 6.73828125 -1.85546875 6.73828125 -1.1875 4.3125 C-0.97480469 3.50425781 -0.76210938 2.69601563 -0.54296875 1.86328125 C-0.36378906 1.24839844 -0.18460937 0.63351563 0 0 Z"/>
<path transform="translate(413,330)" fill="#E2D0D0" d="M0 0 C2.88437779 1.29299694 4.87219421 2.65941363 7 5 C6.67 5.66 6.34 6.32 6 7 C3.95880212 5.38405168 1.95927063 3.7143618 0 2 C0 1.34 0 0.68 0 0 Z"/>
<path transform="translate(351,224)" fill="#4E6471" d="M0 0 C3.96 1.98 3.96 1.98 8 4 C7.01 5.485 7.01 5.485 6 7 C3.95880212 5.38405168 1.95927063 3.7143618 0 2 C0 1.34 0 0.68 0 0 Z"/>
<path transform="translate(340,216)" fill="#DBCED1" d="M0 0 C2.31 1.98 4.62 3.96 7 6 C6.34 6.66 5.68 7.32 5 8 C4.67 7.34 4.34 6.68 4 6 C1.98330173 4.86649466 1.98330173 4.86649466 0 4 C0 2.68 0 1.36 0 0 Z"/>
<path transform="translate(353,188)" fill="#C89858" d="M0 0 C1.98 0 3.96 0 6 0 C6.33 0.66 6.66 1.32 7 2 C6.0625 4.125 6.0625 4.125 5 6 C5 5.01 5 4.02 5 3 C2.525 2.01 2.525 2.01 0 1 C0 0.67 0 0.34 0 0 Z"/>
<path transform="translate(459,170)" fill="#DFCDD0" d="M0 0 C2.31 0.33 4.62 0.66 7 1 C7 1.66 7 2.32 7 3 C5.02 3 3.04 3 1 3 C0.67 2.01 0.34 1.02 0 0 Z"/>
<path transform="translate(495,138)" fill="#C88F92" d="M0 0 C3.16115776 1.36983503 3.9927092 1.9890638 6 5 C5.01 5.495 5.01 5.495 4 6 C4 5.34 4 4.68 4 4 C2.35 3.67 0.7 3.34 -1 3 C-0.67 2.01 -0.34 1.02 0 0 Z"/>
<path transform="translate(317,123)" fill="#C3924C" d="M0 0 C0.66 0 1.32 0 2 0 C1.34 2.97 0.68 5.94 0 9 C-2 5 -2 5 -1.125 2.25 C-0.75375 1.5075 -0.3825 0.765 0 0 Z"/>
<path transform="translate(325,119)" fill="#F9CEB6" d="M0 0 C0.33 0.66 0.66 1.32 1 2 C0.0625 4.125 0.0625 4.125 -1 6 C-2.32 5.67 -3.64 5.34 -5 5 C-3.35 3.35 -1.7 1.7 0 0 Z"/>
<path transform="translate(378,111)" fill="#C39353" d="M0 0 C0.99 0 1.98 0 3 0 C4.32 2.64 5.64 5.28 7 8 C4 7 4 7 2 4 C2 3.01 2 2.02 2 1 C1.34 0.67 0.68 0.34 0 0 Z"/>
<path transform="translate(306,44)" fill="#D1969C" d="M0 0 C3.55780196 0.60990891 6.6828589 1.5783681 10 3 C10 3.33 10 3.66 10 4 C4.25 4.125 4.25 4.125 2 3 C2 2.34 2 1.68 2 1 C1.34 0.67 0.68 0.34 0 0 Z"/>
</svg>